<svg width="17" height="17" viewBox="0 0 17 17" fill="none" xmlns="http://www.w3.org/2000/svg">
<path d="M17 2.125H3.00475L2.975 1.87637C2.91412 1.35959 2.66573 0.883102 2.27693 0.537255C1.88813 0.191408 1.38594 0.000242104 0.865583 0L0 0V1.41667H0.865583C1.03908 1.41669 1.20653 1.48039 1.33618 1.59567C1.46583 1.71096 1.54866 1.86982 1.56896 2.04212L2.69167 11.582C2.75255 12.0987 3.00094 12.5752 3.38974 12.9211C3.77854 13.2669 4.28072 13.4581 4.80108 13.4583H14.1667V12.0417H4.80108C4.62748 12.0416 4.45994 11.9778 4.33027 11.8624C4.20061 11.747 4.11785 11.5879 4.09771 11.4155L4.00492 10.625H15.4672L17 2.125ZM14.2828 9.20833H3.83846L3.17192 3.54167H15.305L14.2828 9.20833Z" fill="black"/>
<path d="M4.95866 17.0004C5.74106 17.0004 6.37532 16.3662 6.37532 15.5838C6.37532 14.8014 5.74106 14.1671 4.95866 14.1671C4.17625 14.1671 3.54199 14.8014 3.54199 15.5838C3.54199 16.3662 4.17625 17.0004 4.95866 17.0004Z" fill="black"/>
<path d="M12.0417 17.0004C12.8241 17.0004 13.4583 16.3662 13.4583 15.5838C13.4583 14.8014 12.8241 14.1671 12.0417 14.1671C11.2593 14.1671 10.625 14.8014 10.625 15.5838C10.625 16.3662 11.2593 17.0004 12.0417 17.0004Z" fill="black"/>
</svg>
