<svg width="17" height="17" viewBox="0 0 17 17" fill="none" xmlns="http://www.w3.org/2000/svg">
<g clip-path="url(#clip0_12_104)">
<path d="M12.3958 0.649658C11.5982 0.662065 10.818 0.884721 10.134 1.29514C9.44993 1.70556 8.88631 2.28922 8.50001 2.98716C8.11371 2.28922 7.55009 1.70556 6.86605 1.29514C6.18202 0.884721 5.4018 0.662065 4.60418 0.649658C3.33268 0.704902 2.13472 1.26113 1.27202 2.19682C0.409328 3.13252 -0.0479788 4.37161 1.11458e-05 5.64341C1.11458e-05 10.4424 7.76051 15.9851 8.09059 16.2202L8.50001 16.5099L8.90943 16.2202C9.23951 15.9865 17 10.4424 17 5.64341C17.048 4.37161 16.5907 3.13252 15.728 2.19682C14.8653 1.26113 13.6673 0.704902 12.3958 0.649658ZM8.50001 14.766C6.1958 13.0448 1.41668 8.81603 1.41668 5.64341C1.36826 4.74717 1.67619 3.86813 2.27331 3.19803C2.87043 2.52792 3.7083 2.12111 4.60418 2.06632C5.50005 2.12111 6.33792 2.52792 6.93505 3.19803C7.53217 3.86813 7.8401 4.74717 7.79168 5.64341H9.20834C9.15992 4.74717 9.46785 3.86813 10.065 3.19803C10.6621 2.52792 11.5 2.12111 12.3958 2.06632C13.2917 2.12111 14.1296 2.52792 14.7267 3.19803C15.3238 3.86813 15.6318 4.74717 15.5833 5.64341C15.5833 8.81745 10.8042 13.0448 8.50001 14.766Z" fill="black"/>
</g>
<defs>
<clipPath id="clip0_12_104">
<rect width="17" height="17" fill="white"/>
</clipPath>
</defs>
</svg>
