<svg width="17" height="17" viewBox="0 0 17 17" fill="none" xmlns="http://www.w3.org/2000/svg">
<g clip-path="url(#clip0_12_124)">
<path d="M8.4701 17.0056L7.97634 16.5823C7.29564 16.0124 1.35205 10.8793 1.35205 7.12452C1.35205 3.19334 4.53892 0.00646973 8.4701 0.00646973C12.4013 0.00646973 15.5882 3.19334 15.5882 7.12452C15.5882 10.8793 9.64456 16.0124 8.96669 16.5852L8.4701 17.0056ZM8.4701 1.5456C5.39041 1.54909 2.8947 4.0448 2.89121 7.12449C2.89121 9.48331 6.54794 13.2515 8.4701 14.9761C10.3923 13.2508 14.049 9.48045 14.049 7.12449C14.0455 4.0448 11.5498 1.54912 8.4701 1.5456Z" fill="#9975FF"/>
<path d="M8.46997 9.9458C6.91168 9.9458 5.64844 8.68256 5.64844 7.12427C5.64844 5.56598 6.91168 4.30273 8.46997 4.30273C10.0283 4.30273 11.2915 5.56598 11.2915 7.12427C11.2915 8.68256 10.0283 9.9458 8.46997 9.9458ZM8.46997 5.71347C7.69083 5.71347 7.05921 6.34509 7.05921 7.12424C7.05921 7.90338 7.69083 8.535 8.46997 8.535C9.24912 8.535 9.88074 7.90338 9.88074 7.12424C9.88074 6.34509 9.24915 5.71347 8.46997 5.71347Z" fill="#9975FF"/>
</g>
<defs>
<clipPath id="clip0_12_124">
<rect width="17" height="17" fill="white"/>
</clipPath>
</defs>
</svg>
