<svg width="17" height="17" viewBox="0 0 17 17" fill="none" xmlns="http://www.w3.org/2000/svg">
<g clip-path="url(#clip0_12_106)">
<path d="M16.1238 7.2471L12.6175 3.74084L11.6166 4.74526L14.6625 7.79109H4.68701V9.20776H14.6625L11.6166 12.2536L12.6182 13.2552L16.1245 9.74893C16.289 9.58449 16.4194 9.38925 16.5085 9.17437C16.5975 8.95949 16.6433 8.72918 16.6433 8.4966C16.6433 8.26401 16.5975 8.0337 16.5085 7.81882C16.4194 7.60394 16.289 7.4087 16.1245 7.24426L16.1238 7.2471Z" fill="black"/>
<path d="M7.4205 14.875C7.4205 15.0629 7.34587 15.243 7.21303 15.3759C7.0802 15.5087 6.90003 15.5833 6.71217 15.5833H2.125C1.93714 15.5833 1.75697 15.5087 1.62413 15.3759C1.49129 15.243 1.41667 15.0629 1.41667 14.875V2.125C1.41667 1.93714 1.49129 1.75697 1.62413 1.62413C1.75697 1.49129 1.93714 1.41667 2.125 1.41667H6.71217C6.90003 1.41667 7.0802 1.49129 7.21303 1.62413C7.34587 1.75697 7.4205 1.93714 7.4205 2.125V5.90254H8.83717V2.125C8.83717 1.56141 8.61328 1.02091 8.21477 0.622398C7.81625 0.223883 7.27575 0 6.71217 0L2.125 0C1.56142 0 1.02091 0.223883 0.622398 0.622398C0.223883 1.02091 0 1.56141 0 2.125L0 14.875C0 15.4386 0.223883 15.9791 0.622398 16.3776C1.02091 16.7761 1.56142 17 2.125 17H6.71217C7.27575 17 7.81625 16.7761 8.21477 16.3776C8.61328 15.9791 8.83717 15.4386 8.83717 14.875V11.0975H7.4205V14.875Z" fill="black"/>
</g>
<defs>
<clipPath id="clip0_12_106">
<rect width="17" height="17" fill="white"/>
</clipPath>
</defs>
</svg>
